# xmcd CD database file
#
# Track frame offsets:
#	150
#	15672
#	31785
#	43922
#	61422
#	74022
#	89697
#	108755
#	125255
#	140560
#	155040
#	180225
#	197322
#	213572
#	227615
#	240832
#	277162
#
# Disc length: 4440 seconds
#
# Submitted via: cddb-tool 0.4.5
#
#blues,classical,country,data,folk,jazz,newage,reggae,rock,soundtrack,misc
# Revision: 0
# Processed by: cddbd v1.5.2PL0 Copyright (c) Steve Scherf et al.
#
DISCID=eb115611
DTITLE=The Flying Pickets - Only You ... The Best Of
DYEAR=1991
DGENRE=
TTITLE0=Only You
TTITLE1=I Heard It Through The Grapevine
TTITLE2=The Tears Of A Clown
TTITLE3=You've Lost That Lovin' Feelin'
TTITLE4=Sealed With A Kiss
TTITLE5=Only The Lonely
TTITLE6=Space Oddity (Live)
TTITLE7=Who's That Girl
TTITLE8=When You're Young And In Love
TTITLE9=Groovin'
TTITLE10=Coral Island - Summertime
TTITLE11=Buffalo Soldier (Live)
TTITLE12=I Got You Babe (Live)
TTITLE13=Summer In The City
TTITLE14=Get Off My Cloud
TTITLE15=Higher And Higher (live)
TTITLE16=Datatrack
EXTD=
EXTT0=
EXTT1=
EXTT2=
EXTT3=
EXTT4=
EXTT5=
EXTT6=
EXTT7=
EXTT8=
EXTT9=
EXTT10=
EXTT11=
EXTT12=
EXTT13=
EXTT14=
EXTT15=
EXTT16=
PLAYORDER=
